<?xml version="1.0" standalone="no"?>
<!DOCTYPE svg PUBLIC "-//W3C//DTD SVG 20010904//EN"
 "http://www.w3.org/TR/2001/REC-SVG-20010904/DTD/svg10.dtd">
<svg version="1.0" xmlns="http://www.w3.org/2000/svg"
 width="512.000000pt" height="512.000000pt" viewBox="0 0 512.000000 512.000000"
 preserveAspectRatio="xMidYMid meet">
<metadata>
Created by potrace 1.11, written by Peter Selinger 2001-2013
</metadata>
<g transform="translate(0.000000,512.000000) scale(0.100000,-0.100000)"
fill="#000000" stroke="none">
<path d="M440 5109 c-132 -19 -256 -93 -334 -199 -55 -74 -84 -149 -97 -249
-6 -49 -9 -810 -7 -2156 l3 -2080 22 -65 c55 -162 177 -282 337 -333 l71 -22
2125 0 2125 0 71 22 c163 52 285 174 337 338 l22 70 0 2125 0 2125 -22 71
c-51 160 -171 282 -333 337 l-65 22 -2100 1 c-1155 1 -2125 -2 -2155 -7z
m2330 -1766 c80 -22 123 -47 185 -107 61 -60 112 -155 142 -266 16 -57 18
-111 18 -415 0 -390 -3 -415 -70 -550 -97 -200 -313 -292 -558 -240 -178 38
-303 167 -359 372 -18 68 -21 114 -25 359 -6 311 3 412 43 534 46 138 124 231
239 286 112 53 254 64 385 27z m1353 -26 c185 -91 282 -282 294 -577 18 -422
-86 -716 -303 -856 -107 -69 -268 -114 -406 -114 l-59 0 3 93 3 92 90 6 c110
8 163 22 238 62 125 66 200 190 222 367 l8 55 -47 -43 c-125 -116 -330 -141
-488 -61 -160 81 -249 254 -249 484 1 257 122 448 329 516 46 15 80 19 174 16
111 -3 119 -5 191 -40z m-2243 -61 c0 -67 -3 -85 -16 -90 -9 -3 -119 -6 -245
-6 l-229 0 0 -695 0 -695 -100 0 -100 0 0 695 0 695 -237 2 -238 3 -3 88 -3
87 586 0 585 0 0 -84z"/>
<path d="M2500 3177 c-19 -6 -58 -34 -86 -62 -42 -40 -56 -64 -75 -120 -20
-63 -23 -94 -27 -317 -2 -137 -1 -248 3 -248 4 0 139 102 301 226 l295 226 -7
36 c-20 116 -76 207 -148 244 -49 26 -199 35 -256 15z"/>
<path d="M2610 2449 l-285 -219 2 -44 c2 -61 48 -159 94 -201 51 -46 133 -69
216 -62 122 12 199 70 244 183 22 55 24 75 27 312 2 138 0 252 -5 251 -4 0
-136 -99 -293 -220z"/>
<path d="M3824 3174 c-137 -49 -216 -227 -186 -420 29 -183 126 -284 273 -284
82 0 167 38 226 102 63 69 73 95 73 190 -1 209 -89 373 -224 413 -61 18 -108
18 -162 -1z"/>
</g>
</svg>
